<svg width="27" height="27" viewBox="0 0 27 27" fill="none" xmlns="http://www.w3.org/2000/svg">
<path d="M12.6099 0.513905C13.1607 0.195899 13.8393 0.1959 14.3901 0.513905L24.3012 6.23609C24.852 6.5541 25.1913 7.1418 25.1913 7.77781V19.2222C25.1913 19.8582 24.852 20.4459 24.3012 20.7639L14.3901 26.4861C13.8393 26.8041 13.1607 26.8041 12.6099 26.4861L2.69877 20.7639C2.14796 20.4459 1.80866 19.8582 1.80866 19.2222V7.77781C1.80866 7.1418 2.14796 6.5541 2.69877 6.23609L12.6099 0.513905Z" fill="#FFE242"/>
<path fill-rule="evenodd" clip-rule="evenodd" d="M18.2473 11.2823C18.2473 10.6579 18.1245 10.0396 17.886 9.46272C17.6474 8.88583 17.2977 8.36166 16.8569 7.92013C16.4161 7.4786 15.8927 7.12836 15.3168 6.88941C14.7408 6.65045 14.1235 6.52747 13.5001 6.52747C12.8766 6.52747 12.2593 6.65045 11.6834 6.88941C11.1074 7.12836 10.5841 7.4786 10.1432 7.92013C9.70242 8.36166 9.35274 8.88583 9.11417 9.46272C8.8756 10.0396 8.75281 10.6579 8.75281 11.2823L8.75281 12.7088V18.9281C8.75281 19.4534 9.17789 19.8791 9.70226 19.8791H10.177H16.8231H17.2979C17.8222 19.8791 18.2473 19.4534 18.2473 18.9281V12.7088V11.2823ZM16.8231 11.7578C16.818 12.2776 16.3966 12.6986 15.8737 12.7086H11.1264C10.6035 12.6986 10.1821 12.2776 10.177 11.7578L10.177 11.2823C10.177 10.8452 10.2629 10.4124 10.4299 10.0086C10.5969 9.60478 10.8417 9.23786 11.1503 8.92879C11.4589 8.61972 11.8252 8.37455 12.2284 8.20728C12.6315 8.04002 13.0637 7.95392 13.5001 7.95392C13.9365 7.95392 14.3686 8.04002 14.7717 8.20728C15.1749 8.37455 15.5413 8.61972 15.8498 8.92879C16.1584 9.23786 16.4032 9.60478 16.5702 10.0086C16.7372 10.4124 16.8231 10.8452 16.8231 11.2823L16.8231 11.7578Z" fill="#1E1E1E"/>
</svg>
